<svg width="18" height="19" viewBox="0 0 18 19" fill="none" xmlns="http://www.w3.org/2000/svg">
<path d="M4.83061 0.244629H13.0144C15.6779 0.244629 17.8447 2.41147 17.8447 5.07496V13.2589C17.8447 15.9222 15.6779 18.0891 13.0144 18.0891H4.83047C2.16712 18.0891 0.00028038 15.9222 0.00028038 13.2589V5.07496C0.00028038 2.41147 2.16712 0.244629 4.83061 0.244629V0.244629ZM1.0464 13.2589C1.0464 15.3454 2.74396 17.043 4.83061 17.043H13.0144C15.1011 17.043 16.7986 15.3454 16.7986 13.2589V5.07496C16.7986 2.98831 15.1011 1.29075 13.0144 1.29075H4.83047C2.74396 1.29075 1.0464 2.98831 1.0464 5.07496V13.2589Z" fill="#365C00"/>
<path d="M9.1929 4.02979C11.8764 4.02979 14.0596 6.21292 14.0596 8.89645C14.0596 11.58 11.8764 13.7631 9.1929 13.7631C6.50937 13.7631 4.32624 11.58 4.32624 8.89645C4.32624 6.21292 6.50937 4.02979 9.1929 4.02979ZM9.1929 12.7197C11.3009 12.7197 13.0161 11.0046 13.0161 8.89645C13.0161 6.78841 11.3009 5.07321 9.1929 5.07321C7.08473 5.07321 5.36967 6.78841 5.36967 8.89645C5.36967 11.0046 7.08473 12.7197 9.1929 12.7197Z" fill="#365C00"/>
<path d="M4.05544 2.40747C4.8009 2.40747 5.40723 3.01392 5.40723 3.75926C5.40723 4.50472 4.8009 5.11117 4.05544 5.11117C3.30998 5.11117 2.70352 4.50472 2.70352 3.75926C2.70352 3.0138 3.30998 2.40747 4.05544 2.40747ZM4.05544 4.1302C4.25993 4.1302 4.42638 3.96375 4.42638 3.75926C4.42638 3.55464 4.25993 3.38831 4.05544 3.38831C3.85082 3.38831 3.68437 3.55464 3.68437 3.75926C3.68437 3.96375 3.85082 4.1302 4.05544 4.1302Z" fill="#365C00"/>
</svg>
