<svg version="1.2" xmlns="http://www.w3.org/2000/svg" viewBox="0 0 16 12" width="16" height="12"><style>.a{fill:#fff}</style><path class="a" d="m0.6 0.1h14.9c0.8 0 0.4 0.8-0.1 1.1-0.5 0.2-6.2 4-6.5 4.1-0.2 0.2-0.6 0.2-0.9 0.2-0.3 0-0.7 0-0.9-0.2-0.3-0.1-6-3.9-6.5-4.1-0.5-0.3-0.9-1.1 0-1.1zm15 3.1c-0.5 0.3-6.4 4-6.7 4.2-0.3 0.2-0.6 0.2-0.9 0.2-0.3 0-0.6 0-0.9-0.2-0.3-0.2-6.1-3.9-6.7-4.2-0.4-0.2-0.4 0.1-0.4 0.3 0 0.2 0 7.5 0 7.5 0 0.5 0.6 1 1 1h14c0.4 0 1-0.5 1-1 0 0 0-7.3 0-7.5 0-0.2 0-0.5-0.4-0.3z"/></svg>