<svg version="1.2" xmlns="http://www.w3.org/2000/svg" viewBox="0 0 17 14" width="17" height="14"><style>.a{fill:#fff}</style><path class="a" d="m15.2 3.5q0.1 0.2 0.1 0.4c0 4.7-3.5 10.1-9.9 10.1-2 0-3.8-0.6-5.4-1.6q0.4 0.1 0.8 0.1c1.7 0 3.2-0.6 4.4-1.6-1.6 0-2.8-1-3.3-2.4q0.3 0.1 0.7 0.1 0.5 0 0.9-0.2c-1.6-0.3-2.8-1.7-2.8-3.4q0-0.1 0-0.1 0.7 0.4 1.6 0.5c-1-0.7-1.6-1.8-1.6-3q0-1 0.5-1.8c1.7 2.2 4.3 3.6 7.2 3.7q-0.1-0.4-0.1-0.8c0-1.9 1.5-3.5 3.5-3.5 1 0 1.9 0.4 2.5 1.1q1.2-0.2 2.2-0.8c-0.2 0.8-0.8 1.5-1.5 1.9q1-0.1 2-0.5-0.7 1-1.8 1.8z"/></svg>